<?xml version="1.0" standalone="no"?>
<!DOCTYPE svg PUBLIC "-//W3C//DTD SVG 20010904//EN"
 "http://www.w3.org/TR/2001/REC-SVG-20010904/DTD/svg10.dtd">
<svg version="1.0" xmlns="http://www.w3.org/2000/svg"
 width="760.000000pt" height="760.000000pt" viewBox="0 0 760.000000 760.000000"
 preserveAspectRatio="xMidYMid meet">
<metadata>
Created by potrace 1.11, written by Peter Selinger 2001-2013
</metadata>
<g transform="translate(0.000000,760.000000) scale(0.100000,-0.100000)"
fill="#000000" stroke="none">
<path d="M3567 7105 c-685 -112 -1204 -606 -1347 -1280 -30 -143 -38 -394 -16
-540 53 -356 208 -666 458 -915 305 -306 704 -471 1138 -471 439 0 830 162
1140 471 310 312 470 698 470 1140 0 256 -42 447 -150 685 -120 264 -365 538
-615 687 -167 99 -340 168 -530 208 -131 28 -419 36 -548 15z m494 -584 c184
-50 328 -133 467 -266 180 -171 286 -392 312 -649 53 -523 -305 -1011 -825
-1121 -96 -21 -310 -24 -404 -6 -459 88 -813 476 -849 933 -15 196 15 370 93
535 78 165 179 292 315 395 119 91 324 177 475 201 17 3 100 4 185 2 120 -2
172 -7 231 -24z"/>
<path d="M700 3215 l0 -295 955 0 955 0 0 -1225 0 -1225 300 0 300 0 0 1520 0
1520 -1255 0 -1255 0 0 -295z"/>
<path d="M4390 1990 l0 -1520 300 0 300 0 0 1225 0 1225 955 0 955 0 0 295 0
295 -1255 0 -1255 0 0 -1520z"/>
</g>
</svg>
