<?xml version="1.0" standalone="no"?>
<!DOCTYPE svg PUBLIC "-//W3C//DTD SVG 20010904//EN"
 "http://www.w3.org/TR/2001/REC-SVG-20010904/DTD/svg10.dtd">
<svg version="1.0" xmlns="http://www.w3.org/2000/svg"
 width="1000.000000pt" height="1000.000000pt" viewBox="0 0 1000.000000 1000.000000"
 preserveAspectRatio="xMidYMid meet">
<metadata>
Created by potrace 1.11, written by Peter Selinger 2001-2013
</metadata>
<g transform="translate(0.000000,1000.000000) scale(0.100000,-0.100000)"
fill="#000000" stroke="none">
<path d="M0 5000 l0 -5000 5000 0 5000 0 0 5000 0 5000 -5000 0 -5000 0 0
-5000z m5834 3282 l138 -379 -1604 -2411 -1603 -2412 -758 0 c-719 0 -757 1
-748 18 6 9 631 962 1389 2117 l1378 2100 -1063 3 -1063 2 5 23 c5 21 185
1298 185 1311 0 3 811 6 1803 6 l1803 0 138 -378z m1606 -1451 c610 -103 1051
-413 1240 -871 24 -59 28 -76 18 -85 -10 -9 -889 -481 -1000 -536 -13 -7 -22
1 -42 35 -114 195 -399 319 -731 318 -166 0 -288 -27 -407 -88 -141 -74 -254
-213 -292 -360 -17 -70 -91 -622 -84 -629 3 -3 34 12 69 33 208 126 448 211
699 248 159 23 432 15 579 -16 707 -150 1155 -694 1128 -1370 -6 -158 -66
-575 -102 -715 -52 -199 -152 -415 -273 -585 -78 -110 -244 -286 -352 -373
-537 -434 -1322 -612 -2050 -467 -531 106 -919 378 -1116 783 -96 198 -129
359 -128 632 l1 200 156 1105 c86 608 166 1151 177 1207 94 475 378 895 795
1175 320 215 655 329 1125 382 19 2 132 3 250 1 160 -3 247 -9 340 -24z"/>
<path d="M6590 3793 c-87 -9 -209 -37 -281 -63 -177 -64 -305 -180 -338 -305
-20 -78 -72 -510 -66 -550 28 -189 228 -324 525 -355 330 -34 678 114 785 333
32 66 37 92 65 298 35 260 36 307 13 375 -61 178 -385 301 -703 267z"/>
</g>
</svg>
